<?xml version="1.0" encoding="UTF-8"?>
<svg id="Layer_1" xmlns="http://www.w3.org/2000/svg" version="1.1" viewBox="0 0 770.7 356.78">
  <!-- Generator: Adobe Illustrator 29.4.0, SVG Export Plug-In . SVG Version: 2.1.0 Build 152)  -->
  <defs>
    <style>
      .st0 {
        fill: #804528;
      }

      .st1 {
        fill: #728478;
      }

      .st2 {
        fill: #223428;
      }

      .st3 {
        fill: none;
        stroke: #223428;
        stroke-miterlimit: 10;
        stroke-width: 26px;
      }
    </style>
  </defs>
  <g>
    <g>
      <g>
        <path class="st2" d="M233.71,202.5c6.01,6.61,9.01,15.76,9.01,27.45v46.13h-25.96v-44.64c0-5.29-1.32-9.42-3.97-12.4-2.65-2.98-6.28-4.46-10.91-4.46-5.07,0-9.15,1.71-12.23,5.12-3.09,3.42-4.63,7.88-4.63,13.39v42.99h-25.96v-81.67h22.49l1.65,9.59c3.2-3.64,7.03-6.45,11.49-8.43,4.46-1.98,9.4-2.98,14.8-2.98,10.14,0,18.21,3.31,24.22,9.92Z"/>
        <path class="st2" d="M255.29,267.31l9.92-17.86c3.97,2.43,8.57,4.3,13.81,5.62,5.23,1.32,10.44,1.98,15.62,1.98,7.16,0,10.75-1.93,10.75-5.79,0-1.98-.99-3.47-2.98-4.46s-5.29-1.65-9.92-1.98c-10.36-.55-18.6-3.14-24.72-7.77-6.12-4.63-9.18-10.69-9.18-18.19,0-8.16,3.31-14.63,9.92-19.43,6.61-4.79,15.54-7.19,26.78-7.19,6.39,0,12.48.77,18.27,2.32,5.79,1.54,10.77,3.69,14.96,6.45l-10.09,17.36c-6.17-3.53-13.5-5.29-21.99-5.29s-12.57,1.98-12.57,5.95c0,1.65.85,2.92,2.56,3.8,1.71.88,4.6,1.54,8.68,1.98,11.68.88,20.58,3.53,26.7,7.94,6.12,4.41,9.18,10.58,9.18,18.52,0,8.38-3.36,14.96-10.09,19.76-6.72,4.79-16.04,7.19-27.94,7.19-14.44,0-27.01-3.64-37.7-10.91Z"/>
        <path class="st2" d="M346.96,182.33c-2.81-2.65-4.22-6.01-4.22-10.09s1.43-7.6,4.3-10.25c2.86-2.65,6.5-3.97,10.91-3.97s8.04,1.32,10.91,3.97c2.86,2.65,4.3,6.06,4.3,10.25s-1.41,7.44-4.22,10.09c-2.81,2.64-6.48,3.97-10.99,3.97s-8.18-1.32-10.99-3.97ZM344.9,194.4h25.96v81.67h-25.96v-81.67Z"/>
        <path class="st2" d="M476,160.34v115.73h-22.48l-1.65-9.75c-6.94,7.61-15.98,11.41-27.11,11.41-7.61,0-14.36-1.79-20.25-5.37-5.9-3.58-10.5-8.6-13.81-15.04-3.31-6.45-4.96-13.81-4.96-22.07s1.65-15.62,4.96-22.07c3.31-6.45,7.91-11.46,13.81-15.04,5.9-3.58,12.65-5.37,20.25-5.37,10.03,0,18.46,3.14,25.3,9.42v-41.83h25.96ZM444.92,250.2c3.64-3.8,5.46-8.79,5.46-14.96s-1.82-11.16-5.46-14.96c-3.64-3.8-8.32-5.7-14.05-5.7s-10.39,1.93-13.97,5.79c-3.58,3.86-5.37,8.82-5.37,14.88s1.79,11.02,5.37,14.88c3.58,3.86,8.24,5.79,13.97,5.79s10.42-1.9,14.05-5.7Z"/>
        <path class="st2" d="M554.2,197.62c6.5,3.36,11.49,8.1,14.96,14.22s5.21,13.25,5.21,21.41c0,2.64-.28,5.9-.83,9.75h-60.02c.77,4.19,3.03,7.58,6.78,10.17,3.75,2.59,8.54,3.89,14.38,3.89,4.08,0,8.04-.6,11.9-1.82,3.86-1.21,7.16-2.92,9.92-5.12l13.56,14.55c-4.63,4.3-10.11,7.61-16.45,9.92-6.34,2.31-13.09,3.47-20.25,3.47-9.48,0-17.69-1.74-24.63-5.21-6.94-3.47-12.29-8.4-16.04-14.8-3.75-6.39-5.62-13.94-5.62-22.65s1.84-15.81,5.54-22.32c3.69-6.5,8.84-11.54,15.46-15.13,6.61-3.58,14.27-5.37,22.98-5.37s16.64,1.68,23.15,5.04ZM519.24,217.05c-3.25,2.65-5.1,6.34-5.54,11.08h36.04c-.33-4.74-2.07-8.43-5.21-11.08-3.14-2.65-7.36-3.97-12.65-3.97s-9.4,1.32-12.65,3.97Z"/>
      </g>
      <g>
        <polygon class="st0" points="110.42 183.98 83.3 209.85 83.3 252.43 110.42 226.64 110.42 183.98"/>
        <polygon class="st2" points="83.3 252.43 48 252.43 48 276.07 83.3 276.07 110.42 276.07 145.71 276.07 145.71 252.43 110.42 252.43 110.42 226.64 83.3 252.43"/>
        <polygon class="st2" points="145.8 183.98 145.8 160.34 110.42 160.34 83.3 160.34 48.09 160.34 48.09 183.98 83.3 183.98 83.3 209.85 110.42 183.98 145.8 183.98"/>
      </g>
    </g>
    <g>
      <path class="st2" d="M38.87,118.3h63.82v22.82H12.58V25.38h88.29v22.65h-62v23.48h58.69v21.82h-58.69v24.96Z"/>
      <path class="st2" d="M113.27,132.35l9.92-17.86c3.97,2.43,8.57,4.3,13.81,5.62,5.23,1.32,10.44,1.98,15.62,1.98,7.16,0,10.75-1.93,10.75-5.79,0-1.98-.99-3.47-2.98-4.46-1.98-.99-5.29-1.65-9.92-1.98-10.36-.55-18.6-3.14-24.72-7.77s-9.18-10.69-9.18-18.19c0-8.16,3.31-14.63,9.92-19.43,6.61-4.79,15.54-7.19,26.78-7.19,6.39,0,12.48.77,18.27,2.31,5.79,1.54,10.77,3.69,14.96,6.45l-10.09,17.36c-6.17-3.53-13.5-5.29-21.99-5.29s-12.57,1.98-12.57,5.95c0,1.65.85,2.92,2.56,3.8,1.71.88,4.6,1.54,8.68,1.98,11.68.88,20.58,3.53,26.7,7.94,6.12,4.41,9.18,10.58,9.18,18.52,0,8.38-3.36,14.96-10.09,19.76-6.72,4.79-16.04,7.19-27.94,7.19-14.44,0-27.01-3.64-37.7-10.91Z"/>
      <path class="st2" d="M218.34,137.73c-6.78-3.47-12.01-8.4-15.71-14.8-3.69-6.39-5.54-13.89-5.54-22.48s1.87-15.95,5.62-22.4c3.75-6.45,8.98-11.46,15.71-15.05,6.72-3.58,14.49-5.37,23.31-5.37,6.06,0,11.85,1.07,17.36,3.22,5.51,2.15,10.42,5.32,14.71,9.51l-14.38,15.71c-4.63-4.3-10.09-6.45-16.37-6.45-5.95,0-10.8,1.9-14.55,5.7-3.75,3.8-5.62,8.79-5.62,14.96s1.84,11.16,5.54,14.96c3.69,3.8,8.57,5.7,14.63,5.7,6.72,0,12.45-2.37,17.19-7.11l14.71,15.54c-9.15,9.04-20.06,13.56-32.74,13.56-9.15,0-17.11-1.74-23.89-5.21Z"/>
      <path class="st2" d="M370.86,59.44v81.67h-22.48l-1.65-9.75c-6.94,7.6-15.98,11.41-27.11,11.41-7.61,0-14.36-1.79-20.25-5.37-5.9-3.58-10.5-8.6-13.81-15.05-3.31-6.45-4.96-13.81-4.96-22.07s1.65-15.62,4.96-22.07c3.31-6.45,7.91-11.46,13.81-15.05,5.9-3.58,12.65-5.37,20.25-5.37,5.51,0,10.58.97,15.21,2.89,4.63,1.93,8.6,4.71,11.9,8.35l1.65-9.59h22.48ZM339.77,115.24c3.64-3.8,5.46-8.79,5.46-14.96s-1.82-11.16-5.46-14.96c-3.64-3.8-8.32-5.7-14.05-5.7s-10.39,1.93-13.97,5.79c-3.58,3.86-5.37,8.82-5.37,14.88s1.79,11.02,5.37,14.88c3.58,3.86,8.24,5.79,13.97,5.79s10.42-1.9,14.05-5.7Z"/>
      <path class="st2" d="M457.32,63.16c5.95,3.58,10.58,8.6,13.89,15.05,3.31,6.45,4.96,13.8,4.96,22.07s-1.65,15.62-4.96,22.07-7.94,11.46-13.89,15.05c-5.95,3.58-12.73,5.37-20.34,5.37-10.14,0-18.57-3.2-25.29-9.59v43.32h-25.96V59.44h22.49l1.65,9.59c6.83-7.49,15.87-11.24,27.11-11.24,7.61,0,14.38,1.79,20.34,5.37ZM444.92,115.24c3.64-3.8,5.46-8.79,5.46-14.96s-1.82-11.16-5.46-14.96c-3.64-3.8-8.32-5.7-14.05-5.7s-10.39,1.93-13.97,5.79c-3.58,3.86-5.37,8.82-5.37,14.88s1.79,11.02,5.37,14.88c3.58,3.86,8.24,5.79,13.97,5.79s10.42-1.9,14.05-5.7Z"/>
      <path class="st2" d="M554.2,62.66c6.5,3.36,11.49,8.1,14.96,14.22s5.21,13.25,5.21,21.41c0,2.65-.28,5.9-.83,9.75h-60.02c.77,4.19,3.03,7.58,6.78,10.17,3.75,2.59,8.54,3.89,14.38,3.89,4.08,0,8.04-.6,11.9-1.82,3.86-1.21,7.16-2.92,9.92-5.13l13.56,14.55c-4.63,4.3-10.11,7.6-16.45,9.92-6.34,2.31-13.09,3.47-20.25,3.47-9.48,0-17.69-1.74-24.63-5.21-6.94-3.47-12.29-8.4-16.04-14.8-3.75-6.39-5.62-13.94-5.62-22.65s1.84-15.81,5.54-22.32c3.69-6.5,8.84-11.54,15.46-15.13,6.61-3.58,14.27-5.37,22.98-5.37s16.64,1.68,23.15,5.04ZM519.24,82.09c-3.25,2.65-5.1,6.34-5.54,11.08h36.04c-.33-4.74-2.07-8.43-5.21-11.08-3.14-2.65-7.36-3.97-12.65-3.97s-9.4,1.32-12.65,3.97Z"/>
    </g>
  </g>
  <g>
    <path class="st1" d="M102.6,318.26v19.19h-6.22v-18.78c0-5.88-2.74-9.09-7.75-9.09-5.42,0-9.09,3.88-9.09,9.49v18.38h-6.22v-18.78c0-5.88-2.74-9.09-7.75-9.09-5.35,0-9.09,3.88-9.09,9.49v18.38h-6.22v-33.02h5.55l.07,4.28c2.47-3.28,5.82-4.88,10.03-4.88,5.01,0,9.09,2.34,11.03,6.28,2.61-4.14,6.75-6.28,11.97-6.28,8.49,0,13.7,5.42,13.7,14.44Z"/>
    <path class="st1" d="M114.17,320.93c0-9.83,6.89-17.25,17.45-17.25s17.38,7.42,17.38,17.25-6.89,17.25-17.38,17.25-17.45-7.42-17.45-17.25ZM142.78,320.93c0-6.28-4.41-11.5-11.16-11.5s-11.23,5.21-11.23,11.5,4.41,11.5,11.23,11.5,11.16-5.21,11.16-11.5Z"/>
    <path class="st1" d="M195.72,320.93c0,10.43-6.89,17.25-16.38,17.25-5.48,0-10.09-2.14-12.63-5.62l-.07,4.88h-5.55v-46.79h6.22v17.92c2.61-3.07,6.95-4.88,12.03-4.88,9.49,0,16.38,6.82,16.38,17.25ZM189.5,320.93c0-6.75-4.55-11.5-11.1-11.5s-11.1,4.75-11.1,11.5,4.61,11.5,11.1,11.5,11.1-4.75,11.1-11.5Z"/>
    <path class="st1" d="M206.81,294.66c0-2.41,1.8-4.14,4.21-4.14s4.21,1.74,4.21,4.14-1.74,4.08-4.21,4.08-4.21-1.74-4.21-4.08ZM207.88,304.42h6.22v33.02h-6.22v-33.02Z"/>
    <path class="st1" d="M228.4,290.65h6.22v46.79h-6.22v-46.79Z"/>
    <path class="st1" d="M280.48,323.41h-27.34c.6,5.68,4.95,9.16,11.3,9.16,4.01,0,8.09-1.54,10.03-3.88l4.01,3.81c-3.14,3.61-8.49,5.82-14.17,5.82-10.63,0-17.58-6.89-17.58-17.38s6.82-17.18,16.91-17.18c11.36,0,17.78,7.49,16.85,19.65ZM253.2,318.13h21.39c-.53-5.35-4.61-8.82-10.76-8.82-5.82,0-9.63,3.28-10.63,8.82Z"/>
    <path class="st1" d="M345.45,323.41h-27.34c.6,5.68,4.95,9.16,11.3,9.16,4.01,0,8.09-1.54,10.03-3.88l4.01,3.81c-3.14,3.61-8.49,5.82-14.17,5.82-10.63,0-17.58-6.89-17.58-17.38s6.82-17.18,16.91-17.18c11.36,0,17.78,7.49,16.85,19.65ZM318.18,318.13h21.39c-.54-5.35-4.61-8.82-10.76-8.82-5.82,0-9.63,3.28-10.63,8.82Z"/>
    <path class="st1" d="M354.81,333.1l3.14-4.61c2.88,2.54,7.22,4.08,11.83,4.08s7.69-1.67,7.69-4.48-2.34-3.94-8.29-4.68c-8.89-1.07-13.3-4.34-13.3-9.89,0-5.88,5.62-9.83,14.04-9.83,5.01,0,9.22,1.27,12.97,3.94l-2.87,4.55c-3.01-2.14-6.22-3.08-9.83-3.08-5.35,0-8.22,1.54-8.22,4.35,0,2.47,2.14,3.74,7.75,4.48,9.83,1.27,13.9,4.21,13.9,10.23s-5.62,10.03-13.97,10.03c-5.62,0-10.56-1.74-14.84-5.08Z"/>
    <path class="st1" d="M392.98,320.93c0-10.23,7.15-17.25,17.38-17.25,4.75,0,8.82,1.67,12.37,5.08l-3.88,4.14c-2.21-2.27-5.21-3.48-8.42-3.48-6.48,0-11.23,4.61-11.23,11.5s4.68,11.5,11.23,11.5c3.41,0,6.55-1.34,8.76-3.68l3.88,4.28c-3.61,3.54-7.62,5.15-12.63,5.15-10.36,0-17.45-6.88-17.45-17.25Z"/>
    <path class="st1" d="M465.97,304.42v33.02h-5.48l-.07-4.88c-2.61,3.48-7.15,5.62-12.57,5.62-9.69,0-16.51-7.09-16.51-17.25s6.82-17.25,16.51-17.25c5.42,0,9.96,2.14,12.57,5.62l.07-4.88h5.48ZM459.76,320.93c0-6.75-4.55-11.5-11.1-11.5s-11.1,4.75-11.1,11.5,4.61,11.5,11.1,11.5,11.1-4.75,11.1-11.5Z"/>
    <path class="st1" d="M514.97,320.93c0,10.16-6.75,17.25-16.51,17.25-5.01,0-9.29-1.8-11.9-4.88v19.65h-6.22v-48.53h5.55l.07,4.88c2.54-3.48,7.09-5.62,12.5-5.62,9.76,0,16.51,7.09,16.51,17.25ZM508.75,320.93c0-6.75-4.55-11.5-11.1-11.5s-11.1,4.75-11.1,11.5,4.61,11.5,11.1,11.5,11.1-4.75,11.1-11.5Z"/>
    <path class="st1" d="M558.69,323.41h-27.34c.6,5.68,4.95,9.16,11.3,9.16,4.01,0,8.09-1.54,10.03-3.88l4.01,3.81c-3.14,3.61-8.49,5.82-14.17,5.82-10.63,0-17.58-6.89-17.58-17.38s6.82-17.18,16.91-17.18c11.36,0,17.78,7.49,16.85,19.65ZM531.41,318.13h21.39c-.54-5.35-4.61-8.82-10.76-8.82-5.82,0-9.63,3.28-10.63,8.82Z"/>
    <path class="st1" d="M616.17,306.43l-2.81,5.21c-1.87-1.2-3.61-1.74-5.62-1.74-5.68,0-9.43,4.48-9.43,11.3v16.24h-6.22v-33.02h5.55l.07,5.55c2.61-4.14,5.95-6.15,10.36-6.15,3.14,0,6.15,1,8.09,2.61Z"/>
    <path class="st1" d="M622.46,320.93c0-9.83,6.88-17.25,17.45-17.25s17.38,7.42,17.38,17.25-6.89,17.25-17.38,17.25-17.45-7.42-17.45-17.25ZM651.07,320.93c0-6.28-4.41-11.5-11.16-11.5s-11.23,5.21-11.23,11.5,4.41,11.5,11.23,11.5,11.16-5.21,11.16-11.5Z"/>
    <path class="st1" d="M667.17,320.93c0-9.83,6.88-17.25,17.45-17.25s17.38,7.42,17.38,17.25-6.89,17.25-17.38,17.25-17.45-7.42-17.45-17.25ZM695.79,320.93c0-6.28-4.41-11.5-11.16-11.5s-11.23,5.21-11.23,11.5,4.41,11.5,11.23,11.5,11.16-5.21,11.16-11.5Z"/>
    <path class="st1" d="M766.44,318.26v19.19h-6.22v-18.78c0-5.88-2.74-9.09-7.75-9.09-5.42,0-9.09,3.88-9.09,9.49v18.38h-6.22v-18.78c0-5.88-2.74-9.09-7.75-9.09-5.35,0-9.09,3.88-9.09,9.49v18.38h-6.22v-33.02h5.55l.07,4.28c2.47-3.28,5.82-4.88,10.03-4.88,5.01,0,9.09,2.34,11.03,6.28,2.61-4.14,6.75-6.28,11.97-6.28,8.49,0,13.7,5.42,13.7,14.44Z"/>
  </g>
  <g>
    <polyline class="st3" points="604.04 278.22 604.04 68.65 755.54 39.85 755.54 278.22"/>
    <path class="st0" d="M706.98,141.12c0-15.02-12.17-27.19-27.19-27.19s-27.19,12.17-27.19,27.19c0,10.98,6.51,20.43,15.87,24.72l-13.05,55.25h48.76l-13.05-55.25c9.36-4.3,15.87-13.75,15.87-24.72Z"/>
    <circle class="st2" cx="722.35" cy="187.23" r="7.91"/>
  </g>
</svg>