<?xml version="1.0" encoding="UTF-8"?>
<svg id="Layer_1" xmlns="http://www.w3.org/2000/svg" version="1.1" viewBox="0 0 755.92 252.85">
  <!-- Generator: Adobe Illustrator 29.4.0, SVG Export Plug-In . SVG Version: 2.1.0 Build 152)  -->
  <defs>
    <style>
      .st0 {
        fill: #804528;
      }

      .st1 {
        fill: none;
        stroke: #ebe3cc;
        stroke-miterlimit: 10;
        stroke-width: 25.72px;
      }

      .st2 {
        fill: #ebe3cc;
      }
    </style>
  </defs>
  <g>
    <path class="st2" d="M218.78,177.24c5.94,6.54,8.92,15.6,8.92,27.15v45.64h-25.68v-44.17c0-5.23-1.31-9.32-3.93-12.27-2.62-2.94-6.22-4.42-10.8-4.42-5.02,0-9.05,1.69-12.1,5.07-3.05,3.38-4.58,7.8-4.58,13.25v42.53h-25.68v-80.81h22.25l1.64,9.49c3.16-3.6,6.95-6.38,11.37-8.34,4.42-1.96,9.3-2.94,14.64-2.94,10.03,0,18.02,3.27,23.96,9.81Z"/>
    <path class="st2" d="M240.13,241.36l9.81-17.67c3.93,2.4,8.48,4.25,13.66,5.56,5.18,1.31,10.33,1.96,15.46,1.96,7.09,0,10.63-1.91,10.63-5.73,0-1.96-.98-3.43-2.94-4.42s-5.23-1.64-9.81-1.96c-10.25-.54-18.4-3.11-24.45-7.69-6.05-4.58-9.08-10.58-9.08-17.99,0-8.07,3.27-14.48,9.81-19.22,6.54-4.74,15.38-7.12,26.5-7.12,6.32,0,12.35.76,18.08,2.29,5.72,1.53,10.66,3.65,14.8,6.38l-9.98,17.18c-6.11-3.49-13.36-5.23-21.76-5.23s-12.43,1.96-12.43,5.89c0,1.64.84,2.89,2.54,3.76,1.69.87,4.55,1.53,8.59,1.96,11.56.87,20.36,3.49,26.42,7.85,6.05,4.36,9.08,10.47,9.08,18.32,0,8.29-3.33,14.8-9.98,19.55-6.65,4.74-15.87,7.12-27.64,7.12-14.29,0-26.72-3.6-37.3-10.8Z"/>
    <path class="st2" d="M330.83,157.28c-2.78-2.62-4.17-5.94-4.17-9.98s1.42-7.52,4.25-10.14c2.83-2.62,6.43-3.93,10.8-3.93s7.96,1.31,10.8,3.93c2.83,2.62,4.25,6,4.25,10.14s-1.39,7.36-4.17,9.98c-2.78,2.62-6.41,3.93-10.88,3.93s-8.1-1.31-10.88-3.93ZM328.79,169.22h25.68v80.81h-25.68v-80.81Z"/>
    <path class="st2" d="M458.5,135.53v114.5h-22.25l-1.64-9.65c-6.87,7.52-15.81,11.29-26.83,11.29-7.52,0-14.21-1.77-20.04-5.32-5.83-3.54-10.39-8.51-13.66-14.89-3.27-6.38-4.91-13.66-4.91-21.84s1.64-15.46,4.91-21.84c3.27-6.38,7.82-11.34,13.66-14.89,5.83-3.54,12.51-5.32,20.04-5.32,9.92,0,18.26,3.11,25.03,9.32v-41.38h25.68ZM427.75,224.43c3.6-3.76,5.4-8.7,5.4-14.8s-1.8-11.04-5.4-14.8c-3.6-3.76-8.23-5.64-13.9-5.64s-10.28,1.91-13.82,5.72c-3.54,3.82-5.32,8.73-5.32,14.72s1.77,10.91,5.32,14.72c3.54,3.82,8.15,5.73,13.82,5.73s10.31-1.88,13.9-5.64Z"/>
    <path class="st2" d="M535.87,172.41c6.43,3.33,11.37,8.01,14.8,14.07s5.15,13.11,5.15,21.18c0,2.62-.27,5.83-.82,9.65h-59.38c.76,4.15,3,7.5,6.71,10.06,3.71,2.56,8.45,3.84,14.23,3.84,4.03,0,7.96-.6,11.78-1.8,3.82-1.2,7.09-2.89,9.81-5.07l13.41,14.39c-4.58,4.25-10.01,7.52-16.28,9.81-6.27,2.29-12.95,3.44-20.04,3.44-9.38,0-17.5-1.72-24.37-5.15-6.87-3.44-12.16-8.31-15.87-14.64-3.71-6.32-5.56-13.79-5.56-22.41s1.83-15.65,5.48-22.08c3.65-6.43,8.75-11.42,15.29-14.97,6.54-3.54,14.12-5.32,22.74-5.32s16.46,1.66,22.9,4.99ZM501.27,191.63c-3.22,2.62-5.05,6.27-5.48,10.96h35.66c-.33-4.69-2.05-8.34-5.15-10.96-3.11-2.62-7.28-3.93-12.51-3.93s-9.3,1.31-12.51,3.93Z"/>
  </g>
  <g>
    <polygon class="st0" points="96.79 158.92 69.97 184.51 69.97 226.64 96.79 201.13 96.79 158.92"/>
    <polygon class="st2" points="69.97 226.64 35.04 226.64 35.04 250.03 69.97 250.03 96.79 250.03 131.72 250.03 131.72 226.64 96.79 226.64 96.79 201.13 69.97 226.64"/>
    <polygon class="st2" points="131.8 158.92 131.8 135.53 96.79 135.53 69.97 135.53 35.13 135.53 35.13 158.92 69.97 158.92 69.97 184.51 96.79 158.92 131.8 158.92"/>
  </g>
  <g>
    <path class="st2" d="M26.01,93.93h63.14v22.57H0V2h87.35v22.41H26.01v23.23h58.07v21.59H26.01v24.7Z"/>
    <path class="st2" d="M99.62,107.83l9.81-17.67c3.93,2.4,8.48,4.25,13.66,5.56,5.18,1.31,10.33,1.96,15.46,1.96,7.09,0,10.63-1.91,10.63-5.73,0-1.96-.98-3.43-2.94-4.42-1.96-.98-5.23-1.64-9.81-1.96-10.25-.54-18.4-3.11-24.45-7.69-6.05-4.58-9.08-10.58-9.08-17.99,0-8.07,3.27-14.48,9.81-19.22,6.54-4.74,15.38-7.12,26.5-7.12,6.32,0,12.35.76,18.08,2.29,5.72,1.53,10.66,3.66,14.8,6.38l-9.98,17.18c-6.11-3.49-13.36-5.23-21.76-5.23s-12.43,1.96-12.43,5.89c0,1.64.84,2.89,2.54,3.76,1.69.87,4.55,1.53,8.59,1.96,11.56.87,20.36,3.49,26.42,7.85,6.05,4.36,9.08,10.47,9.08,18.32,0,8.29-3.33,14.8-9.98,19.55-6.65,4.74-15.87,7.12-27.64,7.12-14.29,0-26.72-3.6-37.3-10.8Z"/>
    <path class="st2" d="M203.57,113.15c-6.71-3.44-11.89-8.32-15.54-14.64-3.66-6.32-5.48-13.74-5.48-22.25s1.85-15.79,5.56-22.16c3.71-6.38,8.89-11.34,15.54-14.89,6.65-3.54,14.34-5.32,23.06-5.32,6,0,11.72,1.06,17.18,3.19,5.45,2.13,10.3,5.26,14.56,9.41l-14.23,15.54c-4.58-4.25-9.98-6.38-16.19-6.38-5.89,0-10.69,1.88-14.39,5.64-3.71,3.76-5.56,8.7-5.56,14.8s1.82,11.04,5.48,14.8c3.65,3.76,8.48,5.64,14.48,5.64,6.65,0,12.32-2.34,17.01-7.03l14.56,15.38c-9.05,8.94-19.85,13.41-32.39,13.41-9.05,0-16.93-1.72-23.64-5.15Z"/>
    <path class="st2" d="M354.47,35.7v80.81h-22.25l-1.64-9.65c-6.87,7.52-15.81,11.29-26.83,11.29-7.52,0-14.21-1.77-20.04-5.32-5.83-3.54-10.39-8.51-13.66-14.89-3.27-6.38-4.91-13.66-4.91-21.84s1.64-15.46,4.91-21.84c3.27-6.38,7.82-11.34,13.66-14.89,5.83-3.54,12.51-5.32,20.04-5.32,5.45,0,10.47.96,15.05,2.86,4.58,1.91,8.51,4.66,11.78,8.26l1.64-9.49h22.25ZM323.72,90.9c3.6-3.76,5.4-8.69,5.4-14.8s-1.8-11.04-5.4-14.8c-3.6-3.76-8.24-5.64-13.9-5.64s-10.28,1.91-13.82,5.73c-3.54,3.82-5.32,8.73-5.32,14.72s1.77,10.91,5.32,14.72c3.54,3.82,8.15,5.73,13.82,5.73s10.3-1.88,13.9-5.64Z"/>
    <path class="st2" d="M440.02,39.38c5.89,3.54,10.47,8.51,13.74,14.89,3.27,6.38,4.91,13.66,4.91,21.84s-1.64,15.46-4.91,21.84-7.85,11.34-13.74,14.89c-5.89,3.54-12.6,5.32-20.12,5.32-10.03,0-18.38-3.16-25.03-9.49v42.86h-25.68V35.7h22.25l1.64,9.49c6.76-7.41,15.7-11.12,26.83-11.12,7.52,0,14.23,1.77,20.12,5.32ZM427.75,90.9c3.6-3.76,5.4-8.69,5.4-14.8s-1.8-11.04-5.4-14.8c-3.6-3.76-8.23-5.64-13.9-5.64s-10.28,1.91-13.82,5.73c-3.54,3.82-5.32,8.73-5.32,14.72s1.77,10.91,5.32,14.72c3.54,3.82,8.15,5.73,13.82,5.73s10.31-1.88,13.9-5.64Z"/>
    <path class="st2" d="M535.87,38.89c6.43,3.33,11.37,8.02,14.8,14.07,3.43,6.05,5.15,13.11,5.15,21.18,0,2.62-.27,5.84-.82,9.65h-59.38c.76,4.15,3,7.5,6.71,10.06,3.71,2.56,8.45,3.84,14.23,3.84,4.03,0,7.96-.6,11.78-1.8,3.82-1.2,7.09-2.89,9.81-5.07l13.41,14.39c-4.58,4.25-10.01,7.52-16.28,9.81-6.27,2.29-12.95,3.44-20.04,3.44-9.38,0-17.5-1.72-24.37-5.15-6.87-3.43-12.16-8.31-15.87-14.64-3.71-6.32-5.56-13.79-5.56-22.41s1.83-15.65,5.48-22.08c3.65-6.43,8.75-11.42,15.29-14.97,6.54-3.54,14.12-5.32,22.74-5.32s16.46,1.66,22.9,4.99ZM501.27,58.11c-3.22,2.62-5.05,6.27-5.48,10.96h35.66c-.33-4.69-2.05-8.34-5.15-10.96-3.11-2.62-7.28-3.93-12.51-3.93s-9.3,1.31-12.51,3.93Z"/>
  </g>
  <g>
    <polyline class="st1" points="585.18 252.15 585.18 44.81 735.07 16.32 735.07 252.15"/>
    <path class="st0" d="M687.03,116.51c0-14.86-12.05-26.9-26.9-26.9s-26.9,12.05-26.9,26.9c0,10.86,6.44,20.21,15.7,24.46l-12.92,54.66h48.24l-12.92-54.66c9.26-4.25,15.7-13.6,15.7-24.46Z"/>
    <circle class="st2" cx="702.23" cy="162.13" r="7.83"/>
  </g>
</svg>