<?xml version="1.0" encoding="UTF-8"?><svg id="Layer_1" xmlns="http://www.w3.org/2000/svg" viewBox="0 0 494 403.59"><defs><style>.cls-1{fill:none;stroke:#000;stroke-linecap:round;stroke-linejoin:round;stroke-width:25px;}</style></defs><path class="cls-1" d="M200,60.09c.78,7.9,2.36,15.51,6.46,22.53,10.23,17.52,27.26,25.66,46.52,23.27,21.48-2.67,35.16-17.8,39.54-35.29,7.73-30.93-17.36-60.61-49.5-57.93-23.2,1.94-41.68,21.35-42.45,43.42-.04,1.23-.91,2.26-.55,3.5"/><path class="cls-1" d="M200,223.59c.64,7.7,2.38,15.03,5.93,22.04,8.03,15.85,27.34,26.31,46.6,24.18,17.41-1.92,36.48-14.59,40.75-38.26,4.73-26.22-12.68-48.88-36.28-53.93-26.52-5.69-50.74,11.2-56.43,37.99-.51,2.41-.56,7.99-.56,7.99Z"/><path class="cls-1" d="M107,247.09c8.7-.76,17.14-2.56,24.48-7.53,18.62-12.61,24.6-29.19,20.72-49.41-3.39-17.69-15.05-32.16-36.75-36.27-31.35-5.94-55.36,18.82-55.6,45.21-.2,22.55,14.73,42.71,40.16,47.45,2.11.39,6.99.55,6.99.55Z"/><path class="cls-1" d="M388,247.09c9.1-.75,17.85-2.81,25.48-8.03,25.98-17.77,27.18-53.02,6.13-73.09-25.06-23.89-68.83-13.26-77.48,23.15-6.22,26.2,9.37,50.4,35.34,56.58,3.36.8,10.53,1.39,10.53,1.39Z"/><path class="cls-1" d="M186,310.09c-9.51-11.98-19.77-22.99-33.44-30.62-12.57-7.01-25.83-10.93-40.07-11.87-23.36-1.54-44.56,4.73-62.92,19.08-19.02,14.87-31.23,34.14-35.19,58.38-1.39,8.5-1.21,17.02-1.89,25.52"/><path class="cls-1" d="M481.5,370.59c.07-19.45-2.2-38.3-12.45-55.53-14.29-24.02-34.44-39.65-62.04-45.51-28.46-6.05-53.98.34-76.97,17.59-8.55,6.42-15.51,14.51-22.04,22.95"/><path class="cls-1" d="M314.99,151.61c-18.36-13.28-38.85-20.26-61.48-21.58-26.94-1.58-51.21,5.86-73.47,20.62"/><path class="cls-1" d="M340.75,390.09c.42-9.3-.6-18.43-2.7-27.51-3.77-16.33-11.37-30.56-23.05-42.49-13.23-13.51-21.07-16.39-31.6-21.8-9.64-4.95-20.41-6.67-31.39-7.32-19.95-1.18-37.77,4.64-55.12,13.91-8.09,4.32-13.61,10.59-19.5,17.11-10.54,11.66-17.44,25.07-21.35,40.11-2.46,9.49-2.89,19.22-2.54,28.99"/></svg>