<?xml version="1.0" encoding="UTF-8"?><svg id="Layer_1" xmlns="http://www.w3.org/2000/svg" viewBox="0 0 516.19 404.26"><defs><style>.cls-1{fill:#262626;}.cls-2{fill:#fff;}.cls-3{fill:none;stroke:#262626;stroke-linecap:round;stroke-linejoin:round;stroke-width:25px;}</style></defs><path class="cls-3" d="M31.74,173.26c3.06-10.7,8.21-20.66,9.76-31.96,1.06-7.73,2.91-14.68-5.25-19.54-5.62-3.36-5.81-8.83-5.51-14.49.4-7.54,3.08-10.53,10.49-12.07,1.7-.35,3.34-.4,5.01-.43,16-.29,32,.02,48-.35,15.82-.37,31.66-.74,47.5-.72,17.67.02,35.33.13,53-.29,17.99-.43,35.99-.78,54-.71,15.33.06,30.67-.08,46-.26,28.68-.33,57.33-1.59,86-2.16,9.17-.18,18.32-1.13,27.5-.99,6.71.1,9.21,1.37,10.84,7.53,1.38,5.21,4.24,9.1,7.61,13,4.37,5.06,5,8.07.9,13.34-5.36,6.87-4.09,14.11-3.38,21.62.67,7.1,5.79,11.78,8.99,17.52,4.53,8.15,12.63,10.68,20.59,12.79,6.43,1.71,11.44,4.9,11.75,11.69.31,6.68,3.76,9.9,9.22,11.96,3.96,1.49,6.87,4.43,7.79,8.09,1.23,4.89,4.33,8,7.78,10.85,2.56,2.12,4.95,4.39,7.44,6.57,5.47,4.81,7.11,10.42,5.1,17.56-1.23,4.38-2.37,8.74-4.08,12.98-2.15,5.34-5.66,10.11-6.57,15.98-.86,5.54-4.38,9.04-8.93,12.08-6.45,4.31-14,5.22-21.1,7.26-17.96,5.16-13.57,2.8-19.44,17.67-2.9,7.34-1.48,13.53,4.43,19.06,6.31,5.91,5.95,16.7-.47,22.4-4.87,4.33-7.74,9.27-7.63,16.04.04,2.16.2,4.99-2.8,6.57-8.39,4.41-13.57,11.88-18.04,19.93l-1.98-.55c-4.64-2.11-8.81-5.1-11.46-9.49-3.86-6.4-9.46-6.06-15.58-5.04-1.15.19-2.3.51-3.48.61-18.16,1.46-36.31,2.97-54.5,3.93-22.15,1.17-44.34,1.1-66.49,2.14-13,.61-26.01.37-39.01.78-22.49.72-44.99,1.29-67.5,1.62-4,.06-8.02-.27-12,.06-15.15,1.24-30.33.88-45.5.96-4.18.02-7.2-1.42-9.05-5.49-3.42-7.51-5.78-15.13-6.07-23.52-.31-9.06.08-18.25-3.32-27.03-3.11-8.01-5.1-16.3-5.63-24.97-.45-7.38-2.36-14.44-6.93-20.5-3.71-4.92-5.99-10.55-6.9-16.52-1.29-8.44-3.96-16.44-6.59-24.49-3.58-10.93-8.33-21.45-10.1-32.98-1.37-8.91-2.96-17.81-9.29-25.12-2.41-2.78-3.82-6.6-4.61-10.4-.25-1.23-.14-2.63-2.02-2.5"/><path class="cls-1" d="M70.95,167.41c-7.7,0-14.77-3.53-19.4-9.67C28.58,127.21,6.16,95.32,6.16,70.54,6.16,35.04,35.04,6.16,70.54,6.16c17.2,0,33.36,6.7,45.52,18.86,12.16,12.16,18.86,28.33,18.86,45.52,0,24.66-26.23,61.24-43.59,85.45l-1.15,1.6c-4.47,6.24-11.48,9.82-19.23,9.82h0ZM70.54,52.47c-9.81,0-17.8,7.98-17.8,17.8s7.98,17.8,17.8,17.8,17.8-7.98,17.8-17.8-7.98-17.8-17.8-17.8Z"/><path class="cls-2" d="M70.54,12.32c32.16,0,58.23,26.07,58.22,58.22,0,23.22-27.35,60.81-43.59,83.46-3.48,4.85-8.84,7.25-14.23,7.25s-10.87-2.42-14.48-7.22c-20.89-27.77-44.15-60.27-44.15-83.5,0-32.16,26.07-58.22,58.22-58.22M70.54,94.22c13.23,0,23.95-10.72,23.95-23.95s-10.72-23.95-23.95-23.95-23.95,10.72-23.95,23.95,10.72,23.95,23.95,23.95M70.54,0C31.64,0,0,31.64,0,70.54c0,26.68,23.03,59.54,46.63,90.9,5.8,7.71,14.66,12.13,24.32,12.13s18.6-4.52,24.24-12.39l1.15-1.6c8.07-11.26,19.13-26.68,27.99-41.97,11.27-19.45,16.75-34.84,16.75-47.06,0-18.84-7.34-36.56-20.66-49.88C107.09,7.34,89.38,0,70.54,0h0ZM70.54,81.91c-6.42,0-11.64-5.22-11.64-11.64s5.22-11.64,11.64-11.64,11.64,5.22,11.64,11.64-5.22,11.64-11.64,11.64h0Z"/></svg>