<?xml version="1.0" encoding="UTF-8"?><svg id="Layer_1" xmlns="http://www.w3.org/2000/svg" viewBox="0 0 362.8 229.17"><defs><style>.cls-1{stroke-dasharray:0 0 0 0 42 44;}.cls-1,.cls-2,.cls-3,.cls-4{fill:none;stroke:#262626;stroke-linecap:round;stroke-miterlimit:10;stroke-width:23px;}.cls-5{fill:#262626;}.cls-2{stroke-dasharray:37.3 0 37.3 41.02;}.cls-4{stroke-dasharray:0 0 0 0 62 46;}</style></defs><g id="m8NJCL"><path class="cls-5" d="M240.7.22c92.9-5.61,154.09,96.22,104.36,175.48-45.52,72.56-152.56,70.96-195.92-2.87C105.93,99.25,155.88,5.35,240.7.22ZM241.72,32.97c-63.05,4.62-97.25,77.03-60.68,128.93,36.02,51.12,114.48,44.29,141.03-12.26,26.74-56.94-17.92-121.25-80.35-116.68Z"/><path class="cls-5" d="M230.45,43.17c4.42-.55,8.67,2.34,9.28,6.82.76,5.59.7,22.39.05,28.09-.7,6.15-6.41,6.8-10.7,9.77-5.05,3.5-6.8,8.94-13.89,7.65-3.37-.62-24.76-7.69-27.05-9.26-8.35-5.73,0-15.2,4.58-20.42,8.04-9.17,25.47-21.14,37.72-22.65Z"/><path class="cls-5" d="M262.67,43.16c3.67-.75,13.54,3.34,17.2,5.08,8.34,3.96,17.23,10.68,23.34,17.59,4.64,5.25,12.95,14.68,4.58,20.42-2.37,1.63-23.61,8.64-27.05,9.26-7.1,1.3-9.03-4.35-14.19-7.86-3.6-2.44-8.64-3.3-9.99-7.91-.92-3.14-.91-25.82-.35-29.74.43-3.06,3.44-6.22,6.47-6.84Z"/><path class="cls-5" d="M312.32,102.51c10.05-1.08,9.74,10.1,9.32,17.01-.81,13.12-6.25,28.09-14.12,38.57-2.02,2.7-4.02,5.81-7.62,6.19-3.11.33-5.19-.04-7.41-2.31-3.41-3.46-13.24-17.18-15.77-21.57-3.94-6.82.55-9.5,2.47-15.76,2.17-7.05-.09-10.86,7.91-14.09,4.59-1.85,20.99-7.6,25.22-8.05Z"/><path class="cls-5" d="M238.14,146.51c3.25-.39,7.99,1.2,12.16.93,4.82-.32,7.63-2.58,12.01,1.25,5.93,5.18,11.7,17.5,17.25,23.68,2.6,8.19-3.15,10.62-9.59,12.66-14.27,4.51-30.14,4.41-44.39-.12-6.87-2.18-12.87-5.69-8.4-13.79,2.34-4.24,12.4-18.3,15.69-21.66,1.48-1.51,3.11-2.68,5.27-2.94Z"/><path class="cls-5" d="M181.34,102.5c1.98-.29,3.28.3,5.12.78,4.06,1.06,23.92,7.27,26.19,9.11,3.02,2.45,2.96,8.55,4.11,12.27,1.93,6.26,6.41,8.94,2.47,15.76-2.54,4.39-12.37,18.11-15.77,21.57-4.37,4.44-9.64,2.62-13.28-1.54-7.93-9.07-13.83-24.49-15.3-36.37-.82-6.68-2.78-20.23,6.46-21.57Z"/><path class="cls-5" d="M243.75,93.32c35.1-5.06,32.88,48.97,0,42.7-23.96-4.57-22.04-39.53,0-42.7Z"/></g><line class="cls-3" x1="255.81" y1="11.84" x2="224.31" y2="11.84"/><line class="cls-2" x1="224.31" y1="11.84" x2="130.21" y2="11.84"/><line class="cls-3" x1="108.7" y1="11.84" x2="77.2" y2="11.84"/><line class="cls-4" x1="149.48" y1="114.75" x2="11.5" y2="114.75"/><line class="cls-1" x1="166.5" y1="167.39" x2="54.04" y2="167.39"/><line class="cls-3" x1="160.77" y1="63.3" x2="41.62" y2="63.3"/><line class="cls-3" x1="253.38" y1="217.66" x2="103.74" y2="217.66"/></svg>